<?xml version="1.0" standalone="no"?>
<!DOCTYPE svg PUBLIC "-//W3C//DTD SVG 20010904//EN"
 "http://www.w3.org/TR/2001/REC-SVG-20010904/DTD/svg10.dtd">
<svg version="1.0" xmlns="http://www.w3.org/2000/svg"
 width="300.000000pt" height="300.000000pt" viewBox="0 0 300.000000 300.000000"
 preserveAspectRatio="xMidYMid meet">
<metadata>
Created by potrace 1.14, written by Peter Selinger 2001-2017
</metadata>
<g transform="translate(0.000000,300.000000) scale(0.100000,-0.100000)"
fill="#000000" stroke="none">
<path d="M1895 2694 c-126 -35 -267 -176 -367 -367 l-26 -47 -26 35 c-19 24
-41 39 -79 50 -117 36 -181 27 -279 -38 -111 -74 -178 -161 -181 -238 -1 -21
-3 -39 -4 -39 -2 0 -20 9 -41 20 -49 27 -146 25 -240 -5 -92 -29 -122 -52
-175 -133 -88 -135 -131 -281 -105 -357 16 -48 66 -85 116 -85 33 0 29 -3 -54
-47 -116 -60 -160 -91 -211 -146 -99 -108 -142 -267 -119 -442 10 -74 26 -107
68 -137 29 -20 45 -23 123 -23 172 0 243 45 386 246 39 54 72 99 74 99 1 0 -3
-28 -10 -62 -8 -35 -16 -87 -20 -117 -4 -30 -9 -63 -11 -75 -3 -12 -7 -84 -9
-160 -3 -143 7 -207 43 -268 39 -66 152 -91 272 -59 88 23 217 92 270 144 77
75 134 236 139 391 1 14 8 9 30 -21 108 -149 366 -207 545 -123 135 64 195
182 165 322 -14 61 -89 212 -143 285 -25 35 -46 65 -46 69 0 3 21 -9 48 -28
26 -19 79 -52 117 -73 68 -39 73 -40 165 -39 170 1 320 56 420 153 123 120
131 209 27 304 -53 48 -186 116 -307 158 -52 17 -99 35 -103 39 -5 4 16 8 45
9 61 1 192 11 222 17 148 28 170 41 231 132 60 91 73 152 57 269 -7 50 -20 99
-31 113 -58 82 -203 87 -492 16 -26 -7 -212 -63 -234 -72 -37 -13 -2 12 70 51
118 64 160 109 151 161 -14 77 -109 112 -321 119 -71 2 -139 2 -150 -1z"/>
</g>
</svg>
