<svg viewBox="0 0 50 50" fill="none" xmlns="http://www.w3.org/2000/svg">
  <path
    d="M28.4751 14.4037C34.4596 11.8571 46.5813 7.52794 47.1925 10.5838C47.9565 14.4037 47.1925 14.4037 46.0465 16.3137C45.1297 17.8416 34.9689 17.7143 30.0031 17.4596C35.9875 18.6056 47.5745 21.6615 46.0465 24.7174C44.1366 28.5372 38.597 28.8713 37.2608 28.5372C35.7329 28.1553 26.9472 22.0435 28.4751 19.7515L30.0031 17.4596L28.4751 14.4037Z"
    fill="white" />
  <path
    d="M34.9689 35.795C36.8788 32.3571 30.0031 24.972 25.8012 20.5155L23.5093 21.6615C24.0186 25.2267 23.5093 33.5031 25.0372 35.795C26.9442 38.6555 33.059 39.2329 34.9689 35.795Z"
    fill="white" />
  <path
    d="M30.0031 17.4596C34.9689 17.7143 45.1297 17.8416 46.0465 16.3137C47.1925 14.4037 47.9565 14.4037 47.1925 10.5838C46.5813 7.52794 34.4596 11.8571 28.4751 14.4037L30.0031 17.4596ZM30.0031 17.4596C35.9875 18.6056 47.5745 21.6615 46.0465 24.7174C44.1366 28.5372 38.597 28.8713 37.2608 28.5372C35.7329 28.1553 26.9472 22.0435 28.4751 19.7515L30.0031 17.4596ZM25.8012 20.5155C30.0031 24.972 36.8788 32.3571 34.9689 35.795C33.059 39.2329 26.9442 38.6555 25.0372 35.795C23.5093 33.5031 24.0186 25.2267 23.5093 21.6615L25.8012 20.5155Z"
    stroke="white" stroke-width="2" />
  <path
    d="M20.8354 41.9068C24.2733 38.4689 22.3633 28.6645 21.9813 24.3354L17.3974 23.9534C15.9968 26.2453 14.7236 29.6832 13.9596 31.5931C13.3577 33.0978 11.6677 42.2887 13.5776 43.8167C15.4875 45.3446 19.8615 42.8806 20.8354 41.9068Z"
    fill="white" stroke="white" stroke-width="2" />
  <path
    d="M8.22981 36.559C9.37578 35.795 13.9596 28.5372 17.0155 25.0994L15.4875 22.8074L6.43551 27.4895C5.11917 28.1704 4.05284 29.2514 3.39007 30.577C3.05355 31.25 2.82773 31.9729 2.72132 32.7178L2.68645 32.9619C2.56289 33.8268 2.5731 34.7057 2.71675 35.5675L2.88199 36.559C3.64596 38.4689 7.42574 37.095 8.22981 36.559Z"
    fill="white" stroke="white" stroke-width="2" />
  <path
    d="M7.46581 23.9534C8.99376 25.0994 10.1396 22.0434 15.4874 22.0434L19.6893 21.2795L19.6891 21.2792C19.1798 20.7699 18.5433 20.1335 17.7795 19.7516C16.4129 19.0682 16.2515 17.4596 14.3416 16.3137C13.6092 15.8742 10.5217 16.3136 9.37577 17.4596C8.83556 17.9998 5.93787 22.8074 7.46581 23.9534Z"
    fill="white" stroke="white" stroke-width="2" />
  <path
    d="M17.3975 17.4596C18.1614 18.2236 17.9067 17.4595 18.5434 18.6055L22.7452 17.8415C22.8726 16.9502 21.9812 17.2049 22.7452 16.6956C23.8912 15.9316 24.6552 12.1118 23.5093 11.7298C22.4222 11.3674 21.5994 10.9658 20.4534 11.3478C19.3074 11.7298 17.4893 13.311 17.0155 14.0217C16.2515 15.1677 16.5433 16.6054 17.3975 17.4596Z"
    fill="white" stroke="white" stroke-width="2" />
  <path
    d="M32.677 6C28.9593 6 25.8012 12.1118 24.6552 15.5497H26.9472C27.8385 14.0217 31.1502 11.8563 31.913 11.3478C33.059 10.5838 38.0651 8.21125 38.4068 7.52793C38.7888 6.76395 37.2608 6 32.677 6Z"
    fill="white" stroke="white" stroke-width="2" />
  <path
    d="M14.7917 22.6368C17.0461 16.3248 24.7483 14.371 28.3176 14.1832C34.1788 15.5358 27.754 21.5097 23.809 24.3276C19.8639 26.394 12.5374 28.9489 14.7917 22.6368Z"
    fill="#FAD473" stroke="#FAD473" />
</svg>
